<?xml version="1.0" encoding="UTF-8" standalone="no"?>
<!-- Created with Inkscape (http://www.inkscape.org/) -->

<svg
   width="1024"
   height="1024"
   viewBox="0 0 270.93333 270.93333"
   version="1.1"
   id="svg1"
   inkscape:version="1.3 (0e150ed6c4, 2023-07-21)"
   sodipodi:docname="SwissCommunities Icon.svg"
   xmlns:inkscape="http://www.inkscape.org/namespaces/inkscape"
   xmlns:sodipodi="http://sodipodi.sourceforge.net/DTD/sodipodi-0.dtd"
   xmlns="http://www.w3.org/2000/svg"
   xmlns:svg="http://www.w3.org/2000/svg">
  <sodipodi:namedview
     id="namedview1"
     pagecolor="#505050"
     bordercolor="#eeeeee"
     borderopacity="1"
     inkscape:showpageshadow="0"
     inkscape:pageopacity="0"
     inkscape:pagecheckerboard="0"
     inkscape:deskcolor="#505050"
     inkscape:document-units="px"
     showgrid="true"
     showborder="true"
     borderlayer="true"
     inkscape:zoom="0.5"
     inkscape:cx="396"
     inkscape:cy="561"
     inkscape:window-width="1920"
     inkscape:window-height="991"
     inkscape:window-x="-9"
     inkscape:window-y="-9"
     inkscape:window-maximized="1"
     inkscape:current-layer="layer1">
    <inkscape:grid
       id="grid1"
       units="px"
       originx="0"
       originy="0"
       spacingx="1.3229167"
       spacingy="1.3229167"
       empcolor="#0099e5"
       empopacity="0.30196078"
       color="#0099e5"
       opacity="0.14901961"
       empspacing="5"
       dotted="false"
       gridanglex="30"
       gridanglez="30"
       visible="true" />
  </sodipodi:namedview>
  <defs
     id="defs1">
    <inkscape:path-effect
       effect="bspline"
       id="path-effect3"
       is_visible="true"
       lpeversion="1.3"
       weight="11"
       steps="2"
       helper_size="0"
       apply_no_weight="true"
       apply_with_weight="true"
       only_selected="true"
       uniform="true" />
    <inkscape:path-effect
       effect="bspline"
       id="path-effect2"
       is_visible="true"
       lpeversion="1.3"
       weight="42"
       steps="2"
       helper_size="0"
       apply_no_weight="true"
       apply_with_weight="true"
       only_selected="true"
       uniform="false" />
  </defs>
  <g
     inkscape:label="Layer 1"
     inkscape:groupmode="layer"
     id="layer1">
    <circle
       id="path1"
       style="fill:#000000;stroke:#000000;stroke-width:0.264583"
       cx="-45.508331"
       cy="119.0625"
       r="0.13586299" />
    <path
       style="fill:#da291c;stroke:none;stroke-width:0.51;stroke-linejoin:round;fill-opacity:1"
       d="M 21.674665,22.034499 C 43.349331,0.35983333 78.570663,0.22225 135.46666,0.111125 192.36266,0 227.584,0 249.25866,21.674666 c 21.67467,21.674665 21.67467,56.895997 21.67467,113.791994 0,56.896 0,92.11734 -21.67467,113.792 -21.67466,21.67467 -56.896,21.67467 -113.56975,21.67467 -56.673747,0 -91.619912,0 -113.294578,-21.67467 C 0.71966668,227.584 0.44449998,192.36266 0.22224999,135.57779 0,78.792913 0,43.709165 21.674665,22.034499 Z"
       id="path2"
       inkscape:path-effect="#path-effect2"
       inkscape:original-d="M 0,0.52916666 C 43.349331,0.35983333 78.570663,0.22225 135.46666,0 c 56.896,0 92.11734,0 135.46667,0 0,43.349331 0,78.570663 0,135.46666 0,56.896 0,92.11734 0,135.46667 -43.34933,0 -78.57067,0 -135.46667,0 -56.451497,0 -91.397662,0 -134.4083267,0 C 0.71966664,227.584 0.44449999,192.36266 0,135.46666 0,78.792913 0,43.709165 0,0.52916666 Z" />
    <path
       style="fill:#ffffff;fill-opacity:1;stroke:none;stroke-width:0.51;stroke-linejoin:round"
       d="m 32.027812,155.01408 c -4.511146,2.67758 -4.982104,-42.06346 -0.616478,-44.91567 4.365625,-2.85221 48.845613,-3.73591 75.480336,-4.26508 -0.17639,-27.869443 -0.47096,-74.411414 2.70139,-79.038976 3.17236,-4.627562 48.57485,-5.040313 51.86362,-0.500063 3.28877,4.54025 4.17248,50.787653 4.70165,78.480709 28.39861,-0.17639 75.82429,-0.47096 80.62648,2.41035 4.80218,2.88131 6.45319,44.15632 1.76741,47.00853 -4.68577,2.8522 -53.28972,2.26306 -82.39389,1.91028 -0.17639,27.86945 -0.47096,74.41142 -3.64332,79.09719 -3.17235,4.68578 -47.74934,5.92402 -50.80528,1.50019 -3.05594,-4.42383 -2.17223,-50.0821 -1.64306,-77.42238 -27.516668,-0.52917 -73.469504,-1.41288 -78.038858,-4.26508 z"
       id="path3"
       inkscape:path-effect="#path-effect3"
       inkscape:original-d="m 27.516666,157.69166 c -0.05821,-5.52979 -0.470958,-44.74104 -0.529166,-50.27083 8.789459,-0.17462 79.90417,-1.5875 79.90417,-1.5875 0,0 -0.47096,-74.411414 -0.52917,-83.60833 6.40292,-0.05821 51.80541,-0.470959 58.20833,-0.529167 0.17462,9.138708 1.5875,83.079167 1.5875,83.079167 0,0 75.82429,-0.47096 85.19583,-0.52917 0.23283,5.82083 1.88384,47.09584 2.11667,52.91667 -9.60438,-0.11642 -87.3125,-1.05834 -87.3125,-1.05834 0,0 -0.47096,74.41142 -0.52917,83.60834 -6.2865,0.17463 -50.86349,1.41288 -57.14999,1.5875 0.17463,-9.02229 1.5875,-82.02084 1.5875,-82.02084 0,0 -73.469504,-1.41287 -82.550004,-1.5875 z"
       sodipodi:nodetypes="ccccccccccccc"
       transform="translate(-1.0583333)" />
  </g>
</svg>
